<svg xmlns="http://www.w3.org/2000/svg" viewBox="0 0 1200 1200" version="1.1"><path d="M 533.500 358.944 C 526.932 359.999, 520.163 364.071, 513.967 370.695 C 506.129 379.073, 501.452 387.261, 492.943 407.500 C 489.012 416.850, 485.437 424.950, 484.997 425.500 C 484.558 426.050, 482.759 430.244, 481 434.820 C 479.240 439.395, 477.181 443.377, 476.423 443.668 C 475.666 443.959, 472.898 442.963, 470.273 441.456 C 461.217 436.256, 455.432 433.685, 436 426.223 C 416.091 418.578, 405.530 416.115, 398.398 417.453 C 387.584 419.482, 371.253 439.563, 354.612 471.293 C 348.785 482.403, 348.344 488.116, 352.919 493.234 C 355.492 496.112, 356.423 496.492, 360.762 496.430 C 367.936 496.329, 371.003 493.735, 374.504 484.812 C 376.081 480.790, 380.836 470.300, 385.071 461.500 C 397.516 435.637, 402.744 432.439, 421.670 439.114 C 435.115 443.856, 450.832 452.477, 454.843 457.311 C 456.255 459.012, 455.731 459.277, 448.535 460.498 C 440.579 461.849, 437 465.424, 437 472.020 C 437 473.630, 436.002 477, 434.783 479.510 C 432.926 483.331, 432.768 484.400, 433.812 486.071 C 434.842 487.720, 434.695 489.239, 432.972 494.784 C 430.597 502.427, 430.181 513.243, 432.002 520.007 C 433.612 525.988, 437.968 534.354, 442.848 540.841 C 448.627 548.522, 448.071 549.032, 434.659 548.347 C 424.689 547.838, 422.870 548.016, 417.589 550.021 C 409.430 553.117, 396.252 565.712, 391.882 574.589 C 389.065 580.310, 388.816 581.595, 389.141 588.692 C 389.423 594.829, 389.986 597.181, 391.771 599.684 C 395.445 604.834, 397.137 610.844, 397.970 621.695 C 398.928 634.187, 400.862 638.332, 405.961 638.825 C 409.110 639.130, 410.066 638.363, 420.913 626.828 C 437.043 609.672, 471.082 574.768, 473.206 573.205 C 474.456 572.286, 475.510 572.202, 476.845 572.917 C 478.327 573.710, 479.196 573.421, 480.957 571.546 C 484.087 568.214, 487.437 567.652, 493.053 569.518 C 498.719 571.400, 502 570.347, 502 566.647 C 502 564.740, 502.944 564.076, 507.750 562.603 C 516.344 559.970, 530.719 552.781, 537.768 547.592 C 541.199 545.066, 544.272 543, 544.597 543 C 544.923 543, 548.326 546.358, 552.159 550.463 L 559.128 557.926 559.269 586.755 L 559.410 615.583 552.977 623.292 C 549.439 627.531, 545.881 631, 545.070 631 C 544.259 631, 542.135 629.585, 540.351 627.856 L 537.107 624.711 539.053 620.895 C 541.559 615.983, 541.531 615.688, 538.180 611.785 C 536.180 609.455, 534.553 605.409, 532.581 597.864 C 529.394 585.671, 525.285 577.716, 521.042 575.522 C 518.768 574.346, 514.510 574.003, 502.300 574.015 C 484.697 574.031, 482.460 574.613, 479.828 579.863 C 478.908 581.697, 475.545 585.301, 472.353 587.872 C 464.269 594.385, 463.097 596.699, 465.091 602.208 C 466.234 605.365, 466.395 607.341, 465.697 609.683 C 463.188 618.107, 470.933 626.291, 484.082 629.111 C 487.981 629.947, 489.775 629.923, 491.479 629.011 C 493.309 628.032, 494.323 628.116, 496.925 629.461 C 499.531 630.809, 500.747 630.908, 503.500 630 C 507.120 628.805, 511.223 630.154, 513.945 633.434 C 515.418 635.208, 519.915 635.458, 524.858 634.041 C 527.986 633.144, 528.503 633.365, 532.838 637.461 L 537.473 641.840 534.257 646.170 C 525.323 658.200, 511.406 678.912, 504.471 690.500 C 500.192 697.650, 496.198 703.831, 495.595 704.235 C 494.993 704.639, 493.329 704.976, 491.898 704.985 C 490.467 704.993, 487.767 706.115, 485.898 707.479 C 478.851 712.619, 479.013 712.606, 466.247 709.063 C 446.781 703.661, 434.714 699.842, 430.653 697.797 C 426.265 695.588, 425.663 695.841, 425.777 699.846 C 426.054 709.594, 439.608 725.056, 458.659 737.357 C 464.309 741.005, 465.712 742.387, 465.312 743.913 C 464.689 746.299, 470.146 750.497, 481 755.980 C 494.893 762.999, 499.145 763.130, 504.239 756.698 C 507.024 753.181, 507.549 751.577, 508.132 744.796 C 508.742 737.692, 509.133 736.596, 512.300 733.089 C 518.962 725.715, 518.570 719.985, 511.007 714.226 C 508.316 712.177, 506.088 710.099, 506.057 709.608 C 505.840 706.205, 539.294 660.275, 546.874 653.569 C 549.052 651.643, 549.070 651.648, 554.778 655.811 C 567.262 664.914, 573.277 667.495, 579.232 666.304 C 584.124 665.325, 584.794 662.460, 585.514 639.435 C 585.875 627.921, 586.609 617.061, 587.145 615.301 C 588.269 611.620, 598.512 602.057, 613 591.165 C 622.706 583.868, 627.374 582.205, 628.671 585.584 C 629.005 586.455, 628.329 591.518, 627.168 596.834 C 623.953 611.563, 617.523 656.399, 614.524 685 C 612.881 700.670, 612.073 703, 608.279 703 C 607.542 703, 604.267 704.125, 601 705.500 C 597.733 706.875, 594.822 708, 594.530 708 C 594.239 708, 594 705.525, 594 702.500 C 594 699.475, 593.604 697, 593.120 697 C 591.732 697, 558.070 726.209, 556.700 728.603 C 556.192 729.490, 556.371 730, 557.191 730 C 560.075 730, 599.565 721.743, 600.383 720.969 C 600.881 720.499, 600.012 719.054, 598.395 717.664 L 595.524 715.194 601.512 713.519 C 604.805 712.597, 608.288 711.623, 609.250 711.354 C 610.722 710.943, 610.999 711.550, 610.996 715.183 C 610.993 719.405, 610.878 719.555, 605.746 722 C 601.461 724.042, 600.092 725.354, 598.271 729.163 L 596.043 733.826 586.271 735.986 C 551.797 743.608, 543 746.177, 543 748.623 C 543 753.777, 567.512 760.581, 593.353 762.600 C 601.945 763.271, 602.235 763.376, 603.203 766.152 C 604.465 769.772, 606.771 770.351, 617.814 769.823 C 624.959 769.482, 627.751 768.837, 633.267 766.256 C 639.688 763.251, 640 762.944, 640 759.618 C 640 754.607, 638.610 751.617, 633.909 746.517 C 630.410 742.721, 629.872 741.589, 630.462 739.260 C 632.925 729.535, 631.952 725.051, 626.924 722.969 C 625.071 722.201, 623.898 720.812, 623.474 718.881 C 622.583 714.825, 623.812 708.467, 625.823 706.728 C 626.745 705.931, 631.719 704.002, 636.876 702.443 C 646.115 699.649, 646.297 699.634, 649.376 701.426 C 658.815 706.920, 660.562 707.502, 668.655 707.848 C 679.741 708.323, 686.769 706.231, 692.143 700.857 C 696.123 696.877, 696.368 696.787, 703.925 696.534 L 711.642 696.276 705.982 714.315 L 700.322 732.354 695.106 734.054 C 689.130 736.002, 685.514 739.001, 683.151 743.972 C 681.654 747.120, 678.777 748.828, 652.250 762.316 C 621.729 777.835, 619.613 779.396, 625.750 781.863 C 639.073 787.217, 660.778 787.117, 686.708 781.583 C 693.362 780.163, 694.144 780.176, 696.871 781.741 C 701.156 784.200, 712.047 782.245, 722 777.230 C 729.142 773.632, 729.493 773.294, 729.346 770.168 C 729.104 764.993, 726.081 756.890, 722.889 752.860 C 720.324 749.621, 720.108 748.858, 721.123 746.630 C 722.685 743.201, 720.856 738.890, 716.395 735.487 C 714.528 734.063, 713 732.182, 713 731.307 C 713 730.431, 715.011 723.367, 717.469 715.608 C 719.927 707.848, 722.624 698.966, 723.462 695.869 C 725.618 687.907, 727.392 686.132, 734.310 685.020 C 743.217 683.587, 750.083 677.795, 754.509 667.980 L 756.349 663.900 761.424 664.518 C 765.144 664.970, 768.237 664.586, 773 663.081 C 782.676 660.022, 782.254 659.703, 781.826 669.750 L 781.452 678.500 777.120 682.738 C 772.985 686.784, 772.819 687.171, 773.475 691.238 C 773.853 693.582, 774.083 701.800, 773.986 709.500 C 773.823 722.375, 773.978 723.715, 775.917 726.173 C 777.076 727.643, 779.361 729.140, 780.996 729.499 C 786.307 730.666, 799.689 725.714, 809.619 718.907 C 812.950 716.624, 813.650 715.619, 813.274 713.655 C 812.896 711.674, 813.624 710.667, 817.231 708.185 C 823.059 704.175, 831.629 694.833, 837.268 686.342 C 842.782 678.039, 848.809 666.207, 849.640 662.052 C 850.198 659.259, 850.023 659, 847.581 659 C 845.087 659, 830.860 666.279, 817.783 674.247 C 807.836 680.307, 806.632 680.583, 802.810 677.674 C 800.989 676.289, 798.296 674.855, 796.824 674.488 L 794.148 673.820 794.712 662.660 C 795.180 653.401, 795.678 650.804, 797.638 647.412 C 800.790 641.957, 800.741 636.371, 797.500 631.595 C 796.125 629.569, 795 627.714, 795 627.472 C 795 627.231, 797.893 624.760, 801.430 621.981 C 808.876 616.129, 814.002 609.031, 813.996 604.579 C 813.989 598.875, 807.561 590.459, 800.927 587.467 C 798.767 586.493, 797.010 585.202, 797.021 584.598 C 797.033 583.994, 798.789 582.265, 800.923 580.756 C 803.058 579.246, 806.198 575.906, 807.902 573.334 C 810.452 569.484, 811 567.654, 811 562.985 C 811 557.812, 810.572 556.707, 806.131 550.407 C 802.807 545.692, 799.506 542.398, 795.730 540.027 C 790.585 536.796, 790.155 536.228, 789.581 531.896 C 788.768 525.771, 783.064 519.165, 775.788 515.922 C 771.458 513.992, 768.778 513.561, 761 513.539 C 754.781 513.521, 750.386 514.014, 748.273 514.966 C 745.306 516.304, 744.681 516.243, 740.496 514.211 C 735.512 511.789, 726.204 511.212, 721.426 513.028 C 719.939 513.593, 718.529 513.863, 718.293 513.626 C 718.057 513.390, 717.408 509.912, 716.852 505.897 C 715.746 497.914, 712.106 485.558, 708.378 477.128 L 705.997 471.745 702.146 472.361 C 700.028 472.699, 693.715 473.475, 688.118 474.084 C 676.127 475.388, 675.334 475.075, 669.028 466.538 C 666.813 463.539, 665 460.928, 665 460.736 C 665 460.544, 669.216 458.884, 674.368 457.047 C 679.521 455.210, 684.737 452.953, 685.959 452.031 C 688.167 450.365, 688.141 450.336, 681.841 447.496 C 677.053 445.337, 673.506 444.530, 667.355 444.199 C 659.900 443.797, 659.157 443.929, 658.580 445.748 C 658.233 446.842, 657.038 448.561, 655.924 449.569 C 653.961 451.346, 653.794 451.344, 650.389 449.510 C 646.861 447.610, 646.641 446.705, 648.521 441.807 C 649.354 439.636, 633.928 435, 625.872 435 C 613.528 435, 605.313 438.913, 594.538 449.928 C 590.224 454.337, 589.057 455, 585.611 455 C 580.733 455, 565.920 461.870, 561.265 466.291 C 559.486 467.981, 557.770 469.103, 557.452 468.785 C 557.134 468.467, 556.149 465.798, 555.264 462.853 C 553.438 456.781, 553.115 449.761, 554.332 442.612 C 555.149 437.811, 555.122 437.736, 552.832 438.408 C 532.186 444.469, 527.002 445.044, 512.217 442.913 L 502.934 441.575 503.526 438.538 C 504.337 434.373, 528.452 385.806, 530.735 383.739 C 534.030 380.758, 539.810 379, 546.320 379 C 551.221 379, 556.350 380.161, 568.401 384 C 581.110 388.048, 585.445 389, 591.167 389 C 598.044 389, 598.340 388.895, 602.118 385.118 C 607.692 379.543, 607.335 375.232, 601.032 372.016 C 596.227 369.565, 576.295 363.816, 563.500 361.190 C 552.423 358.917, 539.631 357.960, 533.500 358.944 M 533.200 363.200 C 531.938 364.462, 531.574 370.727, 532.607 373.418 C 532.998 374.437, 534.440 375, 536.656 375 C 539.736 375, 540.301 374.553, 542.027 370.750 C 543.088 368.413, 543.966 365.488, 543.978 364.250 C 543.998 362.226, 543.518 362, 539.200 362 C 536.560 362, 533.860 362.540, 533.200 363.200 M 547.578 367.180 C 543.192 372.304, 542.876 375.552, 546.694 376.282 C 548.920 376.707, 550.336 375.885, 554.856 371.542 C 561.301 365.348, 561.371 363, 555.109 363 C 551.706 363, 550.658 363.582, 547.578 367.180 M 522.923 367.923 C 521.315 369.531, 520 371.578, 520 372.473 C 520 374.621, 522.462 379.309, 524.463 380.970 C 525.818 382.094, 526.431 381.944, 528.529 379.972 C 530.484 378.137, 531 376.660, 531 372.907 C 531 370.298, 530.727 367.452, 530.393 366.582 C 529.448 364.118, 526.133 364.713, 522.923 367.923 M 562.706 367.016 C 559.967 369.171, 556 374.998, 556 376.868 C 556 377.527, 557.719 378, 560.117 378 C 563.715 378, 564.869 377.372, 569.261 373.026 C 573.502 368.829, 574.090 367.813, 573.021 366.526 C 571.233 364.371, 565.737 364.632, 562.706 367.016 M 572.127 372.478 C 569.857 374.940, 568 377.360, 568 377.855 C 568 379.218, 570.197 380.760, 573.217 381.518 C 575.566 382.108, 576.590 381.503, 580.962 376.943 C 583.733 374.053, 586 371.380, 586 371.004 C 586 369.951, 581.181 368, 578.580 368 C 577.107 368, 574.742 369.641, 572.127 372.478 M 590.468 371.950 C 588.261 372.845, 581 380.460, 581 381.880 C 581 383.444, 583.743 385.084, 587.330 385.666 C 590.609 386.198, 590.970 385.981, 592.836 382.368 C 593.935 380.241, 595.771 377.934, 596.917 377.242 C 602.137 374.088, 596.534 369.491, 590.468 371.950 M 514.235 378.384 C 513.394 380.229, 513.485 381.247, 514.635 382.889 C 516.246 385.190, 521.857 388.476, 522.713 387.620 C 523.718 386.615, 521.988 382.139, 519.411 379.077 C 516.296 375.375, 515.646 375.287, 514.235 378.384 M 509.223 385.557 C 505.765 387.979, 506.298 392.176, 510.535 395.896 C 512.479 397.603, 514.650 399, 515.360 399 C 516.879 399, 521 394.844, 521 393.313 C 521 392.419, 512.634 384, 511.745 384 C 511.580 384, 510.445 384.701, 509.223 385.557 M 502.557 397.223 C 500.214 400.567, 500.644 402.577, 504.533 406.467 C 508.290 410.223, 509.869 410.731, 511.800 408.800 C 514.138 406.462, 513.130 402.532, 509.208 398.703 C 507.122 396.666, 505.123 395, 504.765 395 C 504.406 395, 503.413 396, 502.557 397.223 M 497.557 409.223 C 495.199 412.588, 495.647 414.561, 499.653 418.452 C 503.805 422.484, 505.009 422.753, 507.345 420.171 C 509.977 417.263, 509.299 414.502, 504.997 410.616 C 500.314 406.385, 499.633 406.258, 497.557 409.223 M 492.789 418.750 C 491.953 419.712, 490.984 421.700, 490.636 423.167 C 490.096 425.443, 490.682 426.430, 494.643 429.917 C 500.012 434.643, 502.218 435.011, 503.839 431.453 C 505.655 427.469, 505.296 426.344, 500.671 421.518 C 495.873 416.510, 495.002 416.204, 492.789 418.750 M 403.250 420.662 C 400.931 421.598, 401.978 424.773, 405.677 428.022 C 412.733 434.216, 420 435.389, 420 430.334 C 420 426.675, 417.223 422.035, 414.387 420.957 C 411.763 419.959, 405.409 419.791, 403.250 420.662 M 391.498 426.002 C 388.688 428.935, 388.666 429.039, 390.561 430.555 C 393.066 432.559, 398.505 435, 400.468 435 C 402.525 435, 406.235 431.190, 405.437 429.897 C 404.451 428.302, 396.841 423, 395.537 423 C 394.897 423, 393.080 424.351, 391.498 426.002 M 423.555 427.231 C 426.044 435.280, 429.170 438.572, 435.726 440.051 C 438.398 440.654, 438.999 440.487, 438.994 439.145 C 438.988 437.245, 437.069 430, 436.572 430 C 436.388 430, 433.226 428.866, 429.546 427.481 L 422.853 424.962 423.555 427.231 M 487.607 431.582 C 485.975 435.834, 487 439.792, 490.535 442.896 C 494.985 446.804, 496.536 446.797, 498.570 442.864 C 500.616 438.909, 499.371 436.173, 493.870 432.533 C 489.406 429.579, 488.432 429.431, 487.607 431.582 M 382.480 434.263 C 380.931 435.596, 379.990 437.174, 380.374 437.796 C 380.756 438.414, 383.504 439.687, 386.482 440.626 C 390.931 442.028, 392.171 442.103, 393.447 441.044 C 396.898 438.180, 394.212 434.047, 387.891 432.495 C 385.957 432.020, 384.556 432.478, 382.480 434.263 M 441 435.047 C 441 437.712, 443.927 445.334, 445.279 446.194 C 448.252 448.083, 450 447.067, 450 443.450 C 450 438.140, 447.642 434.321, 444.036 433.792 C 441.670 433.445, 441 433.722, 441 435.047 M 374.408 444.529 C 372.534 446.516, 371 448.543, 371 449.033 C 371 450.113, 377.144 451.835, 382.159 452.159 C 391.736 452.780, 390.460 443.765, 380.658 441.556 C 378.272 441.018, 377.269 441.495, 374.408 444.529 M 453 445.345 C 453 450.369, 455.183 453, 459.353 453 C 461.327 453, 462.311 452.313, 463.025 450.435 C 465.468 444.008, 463.409 441, 456.566 441 C 453.025 441, 453 441.031, 453 445.345 M 615.500 442.330 C 609.898 444.180, 607.406 445.638, 602.912 449.699 C 596.674 455.335, 597.268 456.587, 610.226 465.113 C 623.143 473.613, 636.818 486.634, 641.865 495.239 C 646.472 503.095, 650.705 515.897, 651.869 525.500 C 652.906 534.043, 652.179 544, 649.547 557.338 C 648.696 561.649, 648 565.514, 648 565.928 C 648 566.341, 649.750 567.257, 651.888 567.963 C 655.498 569.154, 656.135 569.051, 660.778 566.524 C 663.529 565.027, 667.930 561.910, 670.559 559.597 L 675.338 555.391 672.669 551.463 C 670.905 548.867, 670 546.214, 670 543.636 C 670 540.339, 670.668 539.101, 674.328 535.618 C 676.709 533.353, 679.858 530.692, 681.326 529.705 C 682.794 528.718, 684.763 526.468, 685.701 524.705 C 689.414 517.730, 686.755 498.559, 680.014 483.691 C 675.399 473.513, 674.639 473, 664.174 473 C 656.104 473, 655.152 472.791, 653.049 470.552 L 650.750 468.105 657.375 464.838 C 661.019 463.041, 664 461.236, 664 460.827 C 664 459.302, 656.246 452, 654.625 452 C 653.699 452, 650.664 453.800, 647.881 456 C 644.617 458.580, 641.793 460, 639.926 460 L 637.031 460 641.026 454.750 C 643.224 451.863, 644.898 448.825, 644.747 448 C 643.963 443.717, 623.384 439.727, 615.500 442.330 M 483.568 444.284 C 480.588 448.893, 480.618 451.593, 483.673 453.746 C 488.796 457.355, 490.501 457.382, 493.433 453.897 L 496.097 450.732 493.865 448.357 C 492.638 447.050, 490.142 445.101, 488.318 444.025 L 485.001 442.068 483.568 444.284 M 466.950 449.632 C 465.573 453.253, 466.636 456, 469.412 456 C 471.762 456, 475 453.217, 475 451.197 C 475 450.193, 470.074 447, 468.525 447 C 468.209 447, 467.500 448.184, 466.950 449.632 M 499.014 449.986 C 497.922 451.078, 496.733 453.820, 496.371 456.079 C 494.714 466.441, 483.202 470.765, 473.753 464.574 C 469.356 461.693, 461.823 461.423, 456.583 463.960 C 454.062 465.180, 452.006 466.476, 452.013 466.839 C 452.020 467.203, 454.558 469.075, 457.653 471 C 464.695 475.380, 471.135 481.712, 473.604 486.683 C 475.103 489.700, 475.500 492.702, 475.500 501 C 475.500 510.277, 475.190 512.160, 472.843 517.168 C 469.170 525.004, 463.505 533.085, 455.119 542.455 C 451.204 546.830, 448 550.833, 448 551.351 C 448 551.869, 449.957 554.385, 452.348 556.941 C 454.740 559.498, 456.961 562.245, 457.284 563.045 C 458.014 564.854, 459.383 563.350, 466.759 552.638 C 469.652 548.437, 472.637 545, 473.393 545 C 475.008 545, 475.967 548.034, 475.986 553.201 C 475.994 555.236, 476.497 559.217, 477.104 562.048 C 478.075 566.575, 478.465 567.133, 480.354 566.690 C 481.534 566.413, 485.087 565.602, 488.250 564.887 C 491.413 564.172, 494 563.264, 494 562.869 C 494 562.474, 492.685 558.855, 491.077 554.826 C 485.105 539.860, 483.595 523.812, 486.932 510.766 C 491.621 492.433, 503.250 477.711, 527.289 459.674 C 534.239 454.459, 538.947 449.537, 537.885 448.596 C 537.673 448.408, 534.125 448.706, 530 449.259 C 524.736 449.964, 519.932 449.926, 513.887 449.132 C 502.362 447.618, 501.323 447.677, 499.014 449.986 M 367.073 455.635 C 365.933 457.084, 365 459.157, 365 460.241 C 365 462.068, 365.583 462.185, 372.970 461.850 C 381.365 461.469, 384.654 459.868, 383.457 456.747 C 382.679 454.721, 377.841 453, 372.923 453 C 370.033 453, 368.658 453.619, 367.073 455.635 M 480 457.878 C 480 461.537, 482.060 463.274, 485.404 462.435 C 488.659 461.618, 488.653 460.926, 485.364 457.636 C 481.887 454.159, 480 454.244, 480 457.878 M 683.509 461.931 C 674.839 464.874, 673.044 465.785, 675.009 466.243 C 676.379 466.563, 680.425 466.441, 684 465.971 L 690.500 465.117 683.694 465.448 C 679.951 465.630, 677.068 465.599, 677.288 465.379 C 677.508 465.159, 681.583 463.662, 686.343 462.053 C 694.523 459.288, 695.051 459.227, 695.964 460.932 C 697.159 463.166, 696.417 463.977, 693.083 464.079 C 691.663 464.122, 691.082 464.391, 691.793 464.677 C 693.490 465.357, 698 464.206, 698 463.092 C 698 462.613, 697.212 461.317, 696.250 460.211 C 694.506 458.207, 694.463 458.212, 683.509 461.931 M 362.557 465.223 C 359.700 469.301, 360.522 470.628, 366.667 471.862 C 375.301 473.596, 376.594 473.393, 377.962 470.091 C 378.862 467.920, 378.883 466.651, 378.049 465.091 C 377.092 463.304, 375.999 463, 370.522 463 C 365.033 463, 363.890 463.319, 362.557 465.223 M 356.659 475.825 C 353.198 479.649, 354.780 481.376, 363.011 482.758 C 370.206 483.967, 370.569 483.933, 372.250 481.897 C 374.360 479.343, 374.389 478.914, 372.621 476.496 C 371.588 475.083, 369.642 474.508, 364.867 474.204 C 359.425 473.858, 358.224 474.095, 356.659 475.825 M 519 482.369 C 508.988 489.041, 508.862 489.261, 510.644 496.963 C 513.512 509.364, 509.485 520.580, 497.858 532.576 C 494.086 536.467, 490.996 540.517, 490.990 541.576 C 490.985 542.634, 492.222 547.026, 493.740 551.336 L 496.500 559.172 499.749 558.649 C 505.567 557.713, 516.323 551.629, 522.691 545.672 C 529.673 539.141, 534.187 531.224, 536.062 522.219 C 537.975 513.030, 536.746 497.148, 533.335 487 C 529.788 476.447, 528.507 476.033, 519 482.369 M 561.731 483.750 C 562.722 487.293, 562.676 508.620, 561.669 512.376 C 560.930 515.134, 561.014 515.225, 563.699 514.580 C 565.240 514.209, 569.978 513.645, 574.230 513.326 C 581.275 512.797, 582.457 512.989, 587.584 515.498 C 592.098 517.706, 593.580 519.065, 595.083 522.375 C 597.915 528.612, 597.578 533.272, 594 537.347 C 591.047 540.710, 591 540.941, 591 552.009 L 591 563.254 596.074 562.767 C 610.537 561.377, 614.989 546.655, 607.476 525.071 C 600.383 504.692, 591.093 493.495, 574.635 485.489 C 569.560 483.020, 564.407 481, 563.185 481 C 561.240 481, 561.058 481.344, 561.731 483.750 M 356.750 484.689 C 354.271 485.337, 354.405 490.611, 356.934 491.965 C 361.416 494.363, 370 492.087, 370 488.500 C 370 485.140, 362.872 483.090, 356.750 484.689 M 441.873 485.651 C 438.397 489.628, 436.500 498.048, 436.500 509.500 C 436.500 519.728, 436.717 520.956, 439.593 527 C 443.494 535.198, 450.768 543.437, 453.250 542.469 C 455.758 541.490, 455.429 539.807, 451.864 535.388 C 450.140 533.249, 447.552 529.025, 446.114 526 C 443.896 521.334, 443.500 519.136, 443.500 511.500 C 443.500 501.929, 444.727 497.561, 449.572 489.886 C 450.987 487.645, 451.924 485.591, 451.655 485.321 C 451.385 485.052, 449.438 484.600, 447.327 484.317 C 444.400 483.924, 443.105 484.241, 441.873 485.651 M 452.523 488.324 C 451.686 489.602, 449.875 493.956, 448.500 497.999 C 444.014 511.189, 445.525 523.580, 452.632 531.883 C 456.817 536.773, 458.864 537.028, 461.820 533.029 L 464.017 530.058 460.759 524.779 C 457.680 519.791, 457.500 518.976, 457.500 510 C 457.500 502.231, 457.928 499.512, 459.851 495.080 L 462.202 489.661 459.851 487.853 C 456.660 485.399, 454.342 485.548, 452.523 488.324 M 463.457 494.617 C 458.119 500.445, 457.923 502.719, 462.436 506.508 L 466.181 509.652 463.590 511.349 C 460.739 513.217, 460.264 516.291, 462.178 520.492 C 463.706 523.845, 465.570 523.382, 469.347 518.713 C 471.899 515.557, 472.479 513.841, 472.824 508.419 C 473.258 501.606, 471.327 494.347, 468.446 491.955 C 467.263 490.974, 466.345 491.464, 463.457 494.617 M 495.887 499.271 C 494.450 500.497, 492.475 502.754, 491.498 504.286 C 489.738 507.049, 489.749 507.105, 492.931 511.064 L 496.139 515.056 493.069 516.126 C 490.439 517.043, 490 517.692, 490 520.664 C 490 524.337, 491.477 528, 492.958 528 C 494.915 528, 500.392 522.345, 502.120 518.541 C 505.432 511.251, 504.089 497.943, 499.975 497.280 C 499.164 497.150, 497.324 498.046, 495.887 499.271 M 570.667 518.376 C 561.823 520.859, 558.134 525.645, 560.974 530.951 C 562.384 533.587, 564.348 533.542, 568.072 530.789 C 571.890 527.966, 578.338 528.050, 581.951 530.969 C 586.942 535.001, 589.065 535.632, 590.597 533.537 C 592.503 530.930, 593.484 524.991, 592.315 523.137 C 589.046 517.954, 579.581 515.873, 570.667 518.376 M 758 518.692 C 753.709 519.412, 749 521.120, 749 521.955 C 749 522.396, 749.675 524.371, 750.500 526.346 C 752.385 530.858, 752.432 539.030, 750.597 543.422 C 749.826 545.268, 747.531 548.621, 745.497 550.872 L 741.800 554.964 747.532 560.232 C 755.619 567.664, 755.302 567.582, 761.791 563.947 C 771.813 558.332, 776.494 554.341, 779.556 548.802 C 783.461 541.737, 783.753 531.515, 780.212 525.821 C 776.303 519.535, 768.295 516.964, 758 518.692 M 715.518 523.250 C 715.287 523.938, 714.583 526.525, 713.952 529 C 713.321 531.475, 712.332 534.077, 711.754 534.781 C 710.544 536.256, 712.971 538.569, 716.835 539.622 C 720.295 540.566, 722.256 537.953, 722.774 531.710 C 723.184 526.767, 722.993 526.140, 720.476 524.160 C 717.340 521.693, 716.116 521.468, 715.518 523.250 M 552.192 532.295 C 550.987 533.579, 550 535.339, 550 536.206 C 550 538.283, 558.935 548.188, 560.375 547.708 C 560.990 547.503, 561.768 545.641, 562.105 543.569 C 562.616 540.424, 562.204 539.045, 559.609 535.213 C 557.899 532.688, 556.024 530.474, 555.442 530.292 C 554.861 530.110, 553.398 531.012, 552.192 532.295 M 683 531.592 C 677.958 533.773, 673.120 538.841, 672.396 542.703 C 671.179 549.192, 675.698 555, 681.965 555 C 684.998 555, 685 554.996, 685 549.174 C 685 542.560, 686.905 539.898, 693.043 537.934 C 702.510 534.906, 704.198 533.247, 700.066 531.035 C 697.224 529.514, 687.036 529.847, 683 531.592 M 570.635 533.250 C 568.230 537.083, 567.128 542.067, 566.048 554 C 562.826 589.592, 568.060 638.786, 576.075 648.233 C 577.852 650.327, 578.099 650.371, 579.311 648.817 C 580.498 647.293, 582.024 632.390, 583.592 607 C 583.846 602.875, 584.531 593.875, 585.114 587 C 585.696 580.125, 586.246 567.300, 586.336 558.500 C 586.491 543.352, 586.376 542.301, 584.179 538.766 C 579.542 531.309, 573.417 528.814, 570.635 533.250 M 698.619 539.991 C 694.268 541.360, 691 544.912, 691 548.273 C 691 562.198, 714.706 576.012, 763.500 590.521 C 768.450 591.992, 775.780 594.706, 779.790 596.552 C 789.827 601.171, 793.376 599.543, 786.750 593.360 C 782.156 589.073, 763.717 574.923, 749 564.391 C 720.165 543.756, 706.968 537.364, 698.619 539.991 M 423.332 552.959 C 414.781 554.996, 402.764 565.943, 398.228 575.827 C 393.783 585.513, 396.563 600.492, 403.429 603.850 C 405.799 605.009, 406.794 604.969, 410.472 603.564 C 412.828 602.664, 415.595 601, 416.622 599.865 C 418.458 597.837, 418.441 597.763, 415.656 595.543 C 412.308 592.873, 412.346 589.492, 415.749 587.243 C 417.940 585.796, 417.983 585.836, 417.393 588.786 C 416.913 591.186, 417.211 592.043, 418.828 592.908 C 424.304 595.839, 428.957 591.842, 429.064 584.115 L 429.128 579.500 430.740 582.738 C 432.535 586.344, 434.908 587.491, 438.638 586.555 C 442.516 585.581, 444.378 580.007, 443.606 571.683 C 443.188 567.180, 443.318 565.078, 443.987 565.492 C 444.544 565.836, 445 566.697, 445 567.404 C 445 568.111, 445.892 569.497, 446.981 570.483 C 449.475 572.740, 451.376 571.420, 453.083 566.247 C 455.804 558.004, 447.504 551.911, 433.815 552.102 C 429.792 552.159, 425.074 552.544, 423.332 552.959 M 625.352 556.117 C 623.620 556.605, 620.807 558.594, 619.102 560.537 C 612.954 567.539, 615.967 579, 623.955 579 C 626.889 579, 627 578.839, 627 574.582 C 627 572.152, 627.280 569.435, 627.621 568.545 C 628.518 566.208, 633.327 564, 637.520 564 C 640.701 564, 641.100 563.728, 640.820 561.750 C 640.270 557.877, 631.036 554.515, 625.352 556.117 M 681.098 561.493 C 678.127 563.386, 673.290 565.932, 670.348 567.151 C 667.341 568.398, 665 570.007, 665 570.827 C 665 574.475, 689.513 569.702, 693.125 565.350 C 694.239 564.007, 693.956 563.350, 691.200 560.887 C 689.423 559.299, 687.638 558.012, 687.234 558.026 C 686.830 558.040, 684.069 559.600, 681.098 561.493 M 635.139 567.957 C 629.736 569.301, 628.442 571.193, 629.808 575.752 C 631.412 581.109, 636.564 586.758, 645.441 592.894 C 655.940 600.152, 664.340 603.721, 675.215 605.545 C 680.322 606.402, 686.750 607.806, 689.500 608.665 C 695.850 610.649, 709.153 617.795, 719.079 624.554 C 727.642 630.384, 729.868 631.351, 731.857 630.102 C 734.337 628.544, 732.072 625.313, 723.212 617.769 C 695.543 594.210, 666.691 574.331, 653.323 569.614 C 647.911 567.705, 639.307 566.921, 635.139 567.957 M 699.193 574.010 C 695.724 575.615, 690.211 577.679, 686.943 578.596 C 683.647 579.521, 681 580.834, 681 581.544 C 681 582.249, 684.663 584.938, 689.141 587.520 C 695.859 591.395, 697.880 592.119, 700.706 591.660 C 705.734 590.844, 723.500 582.675, 723.500 581.179 C 723.500 580.474, 720.977 578.872, 717.892 577.618 C 714.808 576.365, 710.914 574.363, 709.238 573.170 C 707.562 571.976, 706.036 571.021, 705.846 571.046 C 705.656 571.071, 702.662 572.405, 699.193 574.010 M 493.192 577.012 C 487.731 577.818, 484.499 579.853, 483.456 583.139 C 483.128 584.171, 480.791 586.595, 478.261 588.527 C 471.069 594.019, 470.579 595.144, 470.347 606.721 L 470.142 616.966 474.063 620.322 C 479.826 625.255, 489.403 627.718, 490.608 624.578 C 490.908 623.796, 490.602 622.124, 489.926 620.863 C 488.808 618.773, 488.999 618.822, 492.076 621.410 C 495.257 624.087, 495.846 624.219, 502.227 623.684 C 506.401 623.334, 509 623.495, 509 624.104 C 509 624.647, 510.105 626.195, 511.455 627.545 C 515.371 631.462, 520.461 630.914, 528.130 625.750 C 531.601 623.413, 535.285 620.034, 536.317 618.242 L 538.194 614.983 535.097 612.091 C 533.394 610.499, 532 608.338, 532 607.287 C 532 604.046, 528.008 589.936, 525.949 585.901 C 522.085 578.326, 522.005 578.294, 502.500 576.580 C 500.300 576.387, 496.111 576.581, 493.192 577.012 M 793.511 589.982 C 793.178 590.522, 793.684 593.157, 794.636 595.838 C 796.199 600.237, 796.236 601.554, 795.022 609.361 C 794.282 614.118, 793.976 618.309, 794.342 618.675 C 795.427 619.761, 800.027 614.841, 802.453 610 C 807.223 600.484, 806.398 594.264, 799.929 590.964 C 795.594 588.752, 794.386 588.567, 793.511 589.982 M 432.121 594.050 C 430.881 595.728, 428.784 597.512, 427.461 598.015 C 426.035 598.557, 424.786 600.063, 424.394 601.715 C 423.471 605.593, 421.365 607.731, 417.129 609.086 C 411.322 610.943, 409 613.673, 409 618.643 C 409 621.693, 409.362 622.784, 410.250 622.410 C 411.557 621.858, 433.430 595.770, 435.125 592.741 C 436.756 589.827, 434.525 590.799, 432.121 594.050 M 742.500 596.569 C 735.350 597.852, 725.092 599.214, 719.705 599.597 C 711.623 600.170, 709.962 600.563, 710.208 601.844 C 710.373 602.697, 714.752 607.065, 719.940 611.551 L 729.372 619.708 742.844 620.354 C 750.254 620.709, 761.854 621, 768.623 621 C 783.092 621, 783 621.069, 783 610.240 C 783 601.845, 781.486 600.017, 771.542 596.407 C 763.508 593.492, 759.534 593.514, 742.500 596.569 M 641.654 616.659 C 635.163 643.736, 626 689.905, 626 695.533 C 626 698.041, 626.483 698.012, 634.728 694.999 L 637.956 693.820 635.745 689.979 L 633.535 686.138 635.777 681.522 C 637.467 678.044, 637.771 676.440, 637.010 675.019 C 635.414 672.036, 635.823 668.495, 638.098 665.602 C 640.114 663.040, 640.131 662.795, 638.529 659.420 C 636.145 654.397, 637.296 650.874, 643.518 644.154 C 648.616 638.648, 648.835 638.188, 648.291 634.131 C 647.743 630.048, 647.918 629.693, 652.708 625.190 L 657.696 620.500 655.263 617 C 653.221 614.061, 652.928 612.751, 653.440 608.824 C 654.117 603.629, 653.999 603.466, 648.848 602.499 L 645.211 601.817 641.654 616.659 M 663.200 606.200 C 661.302 608.098, 661.714 616.426, 663.835 619.045 L 665.671 621.311 681.386 619.978 C 690.030 619.244, 697.321 618.290, 697.588 617.858 C 698.385 616.569, 688.365 612.010, 680.154 609.927 C 675.944 608.858, 670.803 607.313, 668.730 606.492 C 664.212 604.704, 664.671 604.729, 663.200 606.200 M 674.069 636.018 C 655.972 639.856, 644 646.819, 644 653.505 C 644 655.217, 644.639 657.491, 645.420 658.559 C 646.739 660.360, 647.944 660.477, 662.170 660.177 C 682.300 659.753, 689.567 661.211, 700.500 667.867 C 710.264 673.811, 717.039 677.294, 717.651 676.682 C 718.545 675.788, 725.983 646.453, 725.991 643.789 C 726.001 640.786, 724.728 640.259, 710.604 637.413 C 701.644 635.608, 679.912 634.778, 674.069 636.018 M 560.677 637.804 C 557.810 640.972, 558.974 643.202, 564.176 644.508 L 566.841 645.177 565.575 640.890 C 564.108 635.921, 563.008 635.228, 560.677 637.804 M 735.149 660.750 C 732.394 667.763, 729.835 674.737, 729.462 676.250 C 728.821 678.845, 728.975 679, 732.196 679 C 736.208 679, 743.301 674.808, 747.270 670.091 C 750.868 665.815, 750.938 660.276, 747.469 654.356 C 745.305 650.665, 742.444 648, 740.645 648 C 740.377 648, 737.904 653.737, 735.149 660.750 M 833.361 669.321 C 825.413 674.898, 821.396 678.349, 821.186 679.782 C 820.756 682.702, 824.496 690.869, 826.639 691.692 C 829.212 692.679, 836.662 683.865, 842.313 673.147 C 846.852 664.539, 847.958 661, 846.111 661 C 845.621 661, 839.884 664.745, 833.361 669.321 M 650.275 679.971 C 643.340 681.619, 640.752 684.800, 642.972 688.948 C 644.656 692.093, 647.149 692.166, 655.203 689.305 C 661.258 687.153, 663.417 686.773, 664.762 687.622 C 668.032 689.684, 666.647 691.455, 660.213 693.437 C 652.420 695.837, 652.372 697.597, 660.013 700.774 C 669.445 704.695, 687.777 702.837, 691.235 697.610 C 691.639 697, 691.976 695.084, 691.985 693.354 C 692.018 686.474, 682.397 681.710, 665 679.990 C 654.279 678.931, 654.650 678.931, 650.275 679.971 M 810.028 682.113 C 806.411 683.557, 806.032 684.655, 806.015 693.750 C 806.002 700.727, 806.314 702.314, 808.036 704.036 C 810.006 706.006, 810.166 706.015, 813.053 704.309 C 814.694 703.340, 817.657 700.887, 819.639 698.858 L 823.242 695.167 820.463 688.084 C 817.473 680.462, 816.114 679.685, 810.028 682.113 M 791.727 685.090 C 789.459 687.988, 789.082 688.117, 785.648 687.168 C 782.487 686.296, 781.850 686.411, 780.993 688.013 C 779.642 690.538, 779.743 694.343, 781.200 695.800 C 782.841 697.441, 791.317 697.312, 795.454 695.584 C 799.965 693.699, 802.521 689.842, 801.063 687.118 C 799.994 685.120, 796.206 682, 794.850 682 C 794.462 682, 793.057 683.390, 791.727 685.090 M 793 698.035 C 789.975 699.063, 785.716 700.263, 783.536 700.702 C 780.052 701.404, 779.480 701.923, 778.803 705 C 776.629 714.883, 780.881 724.759, 786.729 723.409 C 791.720 722.258, 808 714.808, 808 713.676 C 808 711.984, 800.001 695.989, 799.202 696.083 C 798.816 696.128, 796.025 697.007, 793 698.035 M 432.373 703.471 C 432.024 704.380, 434.726 708.354, 439.439 713.864 C 447.682 723.502, 455.510 730.241, 457.924 729.776 C 459.629 729.448, 462.845 720.184, 462.939 715.333 C 463.005 711.894, 462.468 711.589, 449 707.426 C 445.975 706.491, 441.830 704.888, 439.790 703.863 C 435.318 701.618, 433.128 701.502, 432.373 703.471 M 489.131 714.023 C 484.947 718.207, 484.214 721.457, 486.691 724.837 C 491.283 731.104, 503.314 733.214, 508.589 728.677 C 510.938 726.657, 511.199 725.877, 510.600 722.681 C 510.221 720.661, 508.839 717.769, 507.529 716.254 L 505.148 713.500 501.445 715.477 L 497.742 717.454 495.003 714.172 L 492.263 710.891 489.131 714.023 M 464.669 714.750 C 461.348 727.212, 460.670 731.255, 461.636 732.809 C 462.818 734.709, 468.786 739, 470.248 739 C 470.772 739, 472.684 737.516, 474.497 735.703 C 478.011 732.189, 479.985 726.833, 479.994 720.790 C 480 717.090, 479.984 717.075, 473.395 715.040 C 465.381 712.565, 465.252 712.561, 464.669 714.750 M 568.687 721.805 C 565.785 724.833, 565.262 726.185, 567.250 725.518 C 567.938 725.287, 570.456 724.597, 572.847 723.985 C 577.064 722.904, 577.141 722.813, 575.442 720.935 C 573.087 718.334, 571.861 718.491, 568.687 721.805 M 480.968 728.597 C 480.315 730.575, 477.779 735.118, 475.331 738.693 C 470.086 746.355, 469.610 745.550, 483.545 752.579 C 494.020 757.863, 495.514 757.816, 501.871 752.005 C 506.020 748.212, 506.098 748.022, 505.802 742.351 C 505.467 735.928, 504.534 735.002, 496.389 733.006 C 494.129 732.451, 490.304 730.428, 487.889 728.509 C 485.475 726.590, 483.197 725.015, 482.828 725.010 C 482.458 725.004, 481.621 726.619, 480.968 728.597 M 605.856 727.990 C 599.919 733.927, 604.590 739.995, 615.101 739.998 C 624.650 740.002, 629.675 736.206, 626.513 731.379 C 624.400 728.154, 622.690 727.564, 619.097 728.816 C 616.615 729.681, 615.667 729.468, 612.890 727.419 C 611.087 726.088, 609.439 725, 609.229 725 C 609.018 725, 607.500 726.346, 605.856 727.990 M 707.891 739.498 C 705.864 740.600, 704.434 740.683, 701.490 739.870 C 696.835 738.584, 693.544 740.047, 691.291 744.405 C 689.835 747.220, 689.872 747.478, 691.987 749.190 C 694.748 751.426, 703.542 751.636, 708.454 749.584 C 713.179 747.609, 715.634 743.686, 714.163 740.459 C 712.892 737.668, 711.617 737.473, 707.891 739.498 M 588.250 741.166 C 585.913 741.689, 584.016 742.654, 584.035 743.309 C 584.054 743.964, 584.886 747.425, 585.884 751 L 587.697 757.500 594.439 757.798 C 602.620 758.159, 604.433 757.058, 603.646 752.206 C 603.344 750.343, 602.339 746.835, 601.412 744.410 C 599.836 740.281, 599.498 740.007, 596.114 740.107 C 594.126 740.166, 590.587 740.642, 588.250 741.166 M 606 751.671 C 606 763.324, 606.754 765, 611.994 765 C 619.608 765, 631.015 762.776, 633.524 760.802 C 637.038 758.038, 636.613 755.079, 631.762 748.531 L 627.523 742.810 620.512 743.412 C 616.655 743.744, 611.813 743.609, 609.750 743.113 L 606 742.211 606 751.671 M 563.500 744.899 C 557.450 745.815, 551.938 746.914, 551.250 747.341 C 549.159 748.641, 549.835 750.033, 553.250 751.456 C 557.409 753.190, 581.736 757.315, 583.593 756.603 C 585.418 755.902, 585.397 750.886, 583.551 746.468 C 581.831 742.351, 580.834 742.273, 563.500 744.899 M 673.750 756.166 C 670.038 757.897, 667 759.661, 667 760.086 C 667 760.511, 668.799 763.567, 670.998 766.877 C 673.197 770.188, 675.545 774.102, 676.217 775.576 C 677.417 778.210, 677.558 778.246, 684.469 777.632 C 695.365 776.664, 696 776.360, 696 772.116 C 696 766.695, 685.988 752.986, 682.047 753.009 C 681.196 753.014, 677.462 754.435, 673.750 756.166 M 690.004 753.889 C 690.002 754.104, 691.363 756.494, 693.029 759.201 C 694.695 761.909, 696.696 766.576, 697.477 769.574 C 699.420 777.032, 699.651 777.283, 703.865 776.527 C 711.332 775.186, 721.563 771.768, 723.379 770.008 C 726.045 767.424, 724.799 761.841, 720.513 757.169 L 717.147 753.500 703.578 753.500 C 696.115 753.500, 690.006 753.675, 690.004 753.889 M 648.282 767.821 C 633.130 774.939, 629.462 777.431, 631.911 778.945 C 635.213 780.986, 672.784 781.549, 674.747 779.586 C 676.318 778.015, 666.166 760.932, 663.744 761.071 C 663.060 761.111, 656.102 764.148, 648.282 767.821" stroke="none" fill="#000000" fill-rule="evenodd"/><path d="M 499.422 347.363 C 494.500 349.595, 489.220 354.804, 487.935 358.696 C 485.959 364.684, 487.306 372.975, 491.522 380.781 C 498.337 393.399, 497.775 393.246, 503.316 383.998 C 509.563 373.576, 517.489 365.103, 524.529 361.326 L 530.168 358.300 525.910 354.655 C 517.318 347.300, 506.269 344.259, 499.422 347.363 M 724 348.935 C 718.513 350.610, 713.008 354.158, 709.591 358.223 C 702.021 367.225, 694.536 378.809, 691.319 386.500 C 689.479 390.900, 685.873 398.100, 683.304 402.500 C 680.736 406.900, 676.635 414.100, 674.190 418.500 C 671.745 422.900, 667.552 429.920, 664.872 434.100 C 662.192 438.280, 660 441.992, 660 442.350 C 660 442.707, 662.489 443, 665.532 443 C 671.129 443, 681.671 445.956, 685.408 448.573 C 688.141 450.487, 690.353 450.371, 694.850 448.076 C 707.400 441.674, 735.393 415.688, 748.254 398.500 C 756.215 387.862, 758.350 382.256, 758.346 372 C 758.341 360.452, 753.980 353.633, 744.278 350.003 C 738.795 347.952, 728.924 347.432, 724 348.935 M 538.721 380.420 C 536.093 381.127, 532.873 382.710, 531.566 383.938 C 528.939 386.406, 519.977 404.211, 520.039 406.839 C 520.074 408.317, 552.388 433.393, 558.601 436.764 C 559.882 437.459, 563.838 440.159, 567.393 442.764 C 584.835 455.545, 586.918 456.373, 591.250 452.246 C 592.763 450.805, 593.997 449.148, 593.994 448.563 C 593.991 447.978, 591.462 444.350, 588.374 440.500 C 568.495 415.716, 548.588 388.287, 546.098 382.250 C 545.361 380.462, 544.474 379.030, 544.129 379.067 C 543.783 379.105, 541.350 379.713, 538.721 380.420 M 476.475 385.622 C 470.316 392.267, 473.571 404.445, 484.270 414.786 L 487.670 418.073 490.835 410.907 C 492.576 406.966, 494 403.187, 494 402.508 C 494 401.830, 492.600 399.526, 490.889 397.388 C 489.178 395.249, 486.259 391.137, 484.402 388.250 C 482.544 385.363, 480.548 383, 479.965 383 C 479.382 383, 477.811 384.180, 476.475 385.622 M 761.189 397.250 C 759.590 399.587, 757.553 402.921, 756.663 404.657 C 754.840 408.213, 742.890 422.175, 734.232 430.862 C 727.940 437.177, 715.643 446.178, 704 452.994 C 699.875 455.408, 696.344 457.491, 696.153 457.623 C 695.961 457.754, 696.613 459.229, 697.600 460.900 C 699.559 464.216, 698.820 464.193, 710.500 461.311 C 720.124 458.936, 745.530 449.251, 757.974 443.214 C 775.695 434.616, 783.072 425.811, 783.132 413.183 C 783.164 406.566, 781.657 402.853, 777.339 398.903 C 769.215 391.473, 765.407 391.083, 761.189 397.250 M 511.663 421.614 C 510.176 424.646, 509.252 427.598, 509.608 428.175 C 509.964 428.751, 512.786 430.334, 515.878 431.691 C 518.970 433.048, 525.005 435.935, 529.289 438.107 C 536.475 441.750, 537.382 441.974, 540.997 441.001 C 543.428 440.346, 544.725 439.481, 544.413 438.723 C 543.969 437.645, 538.662 433.614, 519.498 419.801 L 514.367 416.102 511.663 421.614 M 554.001 447.750 C 554.002 450.210, 554.652 450.737, 560.173 452.745 C 563.567 453.979, 566.489 454.844, 566.667 454.666 C 566.845 454.488, 564.527 452.578, 561.517 450.421 C 558.506 448.265, 556.033 446.163, 556.022 445.750 C 556.010 445.337, 555.550 445, 555 445 C 554.450 445, 554 446.238, 554.001 447.750 M 524.282 479.969 L 521.065 481.931 522.482 485.950 C 526.510 497.366, 526.365 512.754, 522.125 523.913 C 518.409 533.694, 508.122 545.383, 499.791 549.291 C 494.605 551.724, 494.580 551.765, 495.975 555.435 C 497.307 558.937, 499.768 558.731, 508.895 554.350 C 519.270 549.371, 529.767 538.978, 532.889 530.594 C 538.243 516.219, 537.408 497.811, 530.674 481.750 C 528.858 477.417, 528.590 477.343, 524.282 479.969 M 439.868 490.750 C 437.942 495.618, 437.586 498.417, 437.546 509 C 437.503 520.673, 437.683 521.872, 440.261 527.121 C 441.779 530.213, 444.855 534.825, 447.095 537.371 C 453.785 544.971, 456.828 542.722, 450.707 534.703 C 444.697 526.830, 442.528 520.538, 442.515 510.944 C 442.504 502.944, 442.763 501.873, 446.502 494.444 C 448.701 490.075, 450.650 486.163, 450.833 485.750 C 451.017 485.337, 449.136 485, 446.655 485 L 442.144 485 439.868 490.750 M 463.006 496.150 C 461.353 498.433, 460 500.999, 460 501.852 C 460 502.706, 461.452 504.903, 463.227 506.734 L 466.454 510.063 463.589 512.348 C 460.860 514.523, 460.781 514.808, 461.939 518.316 C 463.418 522.797, 465.018 522.956, 468.385 518.955 C 473.258 513.163, 473.925 504.953, 470.272 495.750 C 469.453 493.688, 468.160 492, 467.398 492 C 466.636 492, 464.660 493.868, 463.006 496.150 M 494.533 501.533 C 490.351 505.716, 490.121 507.825, 493.500 511 C 494.875 512.292, 496 513.937, 496 514.655 C 496 515.374, 494.875 516.244, 493.500 516.589 C 491.402 517.116, 491.002 517.802, 491.015 520.858 C 491.024 522.861, 491.452 525.167, 491.967 525.981 C 492.773 527.255, 493.286 527.177, 495.640 525.419 C 501.095 521.347, 502.466 518.423, 502.846 510.054 C 503.404 497.765, 500.884 495.182, 494.533 501.533 M 570.994 518.883 C 562.740 521.564, 559.329 525.106, 560.935 529.330 C 562.262 532.819, 564.057 533.071, 567.454 530.244 C 571.755 526.665, 579.385 527.375, 584.454 531.826 C 586.443 533.572, 588.267 535, 588.509 535 C 589.741 535, 592.077 528.475, 591.809 525.785 C 591.343 521.131, 587.326 518.650, 579.739 518.331 C 576.308 518.187, 572.372 518.435, 570.994 518.883 M 682.481 532.373 C 677.621 534.524, 673 540.483, 673 544.601 C 673 549.178, 674.370 551.623, 677.980 553.490 C 683.182 556.180, 684 555.628, 684 549.423 C 684 544.642, 684.402 543.445, 686.813 541.033 C 688.360 539.486, 692.201 537.408, 695.349 536.416 C 699.429 535.130, 700.987 534.165, 700.775 533.056 C 700.375 530.958, 686.823 530.452, 682.481 532.373 M 426.786 552.976 C 424.193 553.442, 419.987 554.865, 417.440 556.137 C 411.722 558.993, 402.119 569.088, 399.187 575.326 C 394.984 584.267, 397.144 599.866, 403.020 603.011 C 405.936 604.571, 410.811 603.544, 414.499 600.591 L 417.498 598.191 414.749 595.643 C 413.237 594.242, 412 592.661, 412 592.130 C 412 589.797, 413.454 587.816, 416.217 586.388 L 419.192 584.849 418.489 588.050 C 417.998 590.283, 418.196 591.509, 419.143 592.110 C 425.745 596.293, 431.666 586.184, 427.124 578.485 C 424.592 574.195, 424.449 573.298, 426.578 575.065 C 427.446 575.785, 429.253 578.540, 430.595 581.187 C 432.780 585.499, 433.383 586, 436.394 586 C 441.397 586, 442.429 583.990, 443.022 573.097 L 443.544 563.500 445.457 567.250 C 448.020 572.272, 450.561 572.197, 452.103 567.052 C 453.027 563.965, 453.013 562.446, 452.037 560.090 C 449.672 554.380, 437.714 551.011, 426.786 552.976 M 623.299 557.576 C 618.801 559.861, 616.648 563.621, 616.568 569.330 C 616.512 573.296, 616.939 574.530, 618.922 576.137 C 620.272 577.230, 622.461 577.967, 623.865 577.800 C 626.158 577.527, 626.393 577.061, 626.471 572.639 C 626.577 566.628, 628.966 564.339, 636.120 563.390 C 641.612 562.661, 641.951 561.460, 637.415 558.810 C 632.928 556.190, 627.041 555.676, 623.299 557.576 M 491.546 577.931 C 489.025 578.454, 486.849 579.745, 485.546 581.492 C 484.420 583, 481.959 585.643, 480.076 587.367 C 470.844 595.817, 470.722 596.016, 471.309 601.708 C 471.607 604.594, 471.417 608.529, 470.886 610.451 C 469.468 615.587, 471.723 619.241, 478.233 622.359 C 481.130 623.746, 484.400 624.959, 485.500 625.055 C 489.832 625.434, 490.120 625.155, 489.393 621.283 L 488.696 617.566 492.076 620.410 C 495.283 623.109, 495.824 623.226, 502.669 622.709 C 509.505 622.192, 509.898 622.277, 510.191 624.332 C 510.671 627.702, 516.158 630.001, 520.867 628.806 C 525.488 627.633, 533.879 621.476, 535.974 617.721 C 537.427 615.117, 537.373 614.879, 534.847 612.743 C 533.024 611.202, 531.825 608.780, 531.014 605 C 527.415 588.217, 523.591 580.493, 518.181 579.074 C 512.884 577.685, 496.186 576.968, 491.546 577.931 M 812 682.376 L 807.500 683.500 807.211 692.851 C 806.786 706.603, 808.634 707.966, 817.123 700.161 L 822.385 695.322 820.082 688.911 C 818.815 685.385, 817.491 682.219, 817.139 681.876 C 816.788 681.532, 814.475 681.757, 812 682.376 M 463.324 722.750 C 460.927 732.524, 461.213 733.508, 467.384 736.698 C 470.857 738.495, 473.786 737.328, 476.236 733.172 C 478.128 729.962, 480.313 718.896, 479.253 717.893 C 478.424 717.110, 468.281 714, 466.554 714 C 465.958 714, 464.505 717.938, 463.324 722.750 M 590.500 741.491 C 589.950 741.675, 588.322 742.083, 586.882 742.398 C 584.295 742.965, 584.280 743.020, 585.563 747.236 C 586.277 749.581, 587.131 752.757, 587.460 754.293 C 588.057 757.073, 588.095 757.085, 595.280 756.793 L 602.500 756.500 602.350 751.895 C 602.268 749.362, 601.469 745.874, 600.575 744.145 C 599.177 741.442, 598.425 741.011, 595.224 741.079 C 593.176 741.122, 591.050 741.308, 590.500 741.491 M 676.505 755.557 C 667.135 759.471, 667.138 759.460, 672.826 768.588 L 677.756 776.500 685.467 776.375 C 695.675 776.210, 697.043 775.021, 694.547 768.485 C 693.575 765.940, 690.467 761.426, 687.640 758.455 L 682.500 753.053 676.505 755.557" stroke="none" fill="#fffffe" fill-rule="evenodd"/><path d="M 491.463 335.591 C 481.189 339.239, 474.483 349.497, 474.524 361.500 C 474.537 365.350, 474.880 369.726, 475.286 371.223 C 475.949 373.669, 475.631 374.148, 472.168 375.914 C 463.911 380.127, 460.022 387.482, 461.422 396.236 C 462.810 404.919, 473.926 420.842, 481.239 424.623 C 484.653 426.389, 484.354 426.553, 486.300 421.854 C 487.805 418.223, 487.797 418.196, 484.340 414.854 C 476.693 407.462, 472.235 397.894, 473.441 391.463 C 474.052 388.206, 478.044 383, 479.931 383 C 480.496 383, 483.105 386.156, 485.729 390.013 C 488.353 393.870, 491.400 398.301, 492.500 399.860 L 494.500 402.695 496.538 397.655 L 498.577 392.615 493.780 384.635 C 488.107 375.195, 486.637 370.388, 487.232 363.216 C 487.739 357.099, 489.816 353.824, 495.930 349.500 C 499.536 346.950, 501.097 346.500, 506.336 346.500 C 513.459 346.500, 519.314 348.950, 526.162 354.797 C 529.576 357.711, 531.192 358.433, 533.750 358.187 C 535.538 358.014, 536.997 357.564, 536.993 357.187 C 536.961 353.757, 523.093 341.243, 514.590 336.970 C 509.737 334.531, 507.503 334.014, 502.090 334.079 C 498.466 334.122, 493.683 334.803, 491.463 335.591 M 714.286 342.493 C 702.864 348.207, 689.906 364.502, 681.915 383.200 C 677.228 394.166, 665.698 414.750, 652.634 435.472 C 650.910 438.206, 648.979 441.951, 648.343 443.793 C 647.241 446.987, 647.332 447.231, 650.310 449.042 C 653.402 450.923, 653.455 450.921, 655.660 448.849 C 656.885 447.699, 658.642 445.167, 659.564 443.223 C 660.486 441.280, 663.157 436.722, 665.498 433.095 C 667.840 429.468, 671.753 422.900, 674.195 418.500 C 676.637 414.100, 680.736 406.900, 683.304 402.500 C 685.873 398.100, 689.479 390.900, 691.319 386.500 C 694.537 378.807, 702.022 367.224, 709.595 358.217 C 714.666 352.187, 721.791 348.800, 730.621 348.221 C 742.759 347.424, 751.738 351.689, 756.212 360.376 C 758.907 365.607, 759.126 377.187, 756.669 384.500 C 750.979 401.436, 701.207 450, 689.540 450 C 688.693 450, 688 450.417, 688 450.927 C 688 451.945, 677.917 456.987, 675.812 457.022 C 675.090 457.034, 672.563 457.923, 670.196 458.997 L 665.892 460.951 669.898 466.850 C 672.101 470.095, 674.638 473.031, 675.534 473.375 C 680.545 475.298, 709.933 471.401, 724.500 466.882 C 740.511 461.915, 764.269 452.272, 770.639 448.155 C 778.387 443.147, 788.230 431.673, 790.901 424.536 C 794.076 416.049, 794.426 411.976, 792.535 405.474 C 791.197 400.868, 789.704 398.552, 785.178 394.058 C 781.987 390.890, 776.986 387.242, 773.760 385.728 L 768.019 383.035 768.635 374.268 C 769.125 367.297, 768.908 364.680, 767.579 361.500 C 761.451 346.836, 748.420 339, 730.166 339 C 722 339, 720.695 339.287, 714.286 342.493 M 534.686 363.239 C 533.268 364.277, 532.941 365.649, 533.186 369.533 C 533.488 374.316, 533.611 374.500, 536.500 374.500 C 538.938 374.500, 539.822 373.842, 541.220 370.985 C 542.166 369.051, 543.066 366.351, 543.220 364.985 C 543.466 362.804, 543.072 362.464, 540 362.205 C 538.075 362.044, 535.684 362.508, 534.686 363.239 M 551.328 364.002 C 550.133 364.484, 547.927 366.974, 546.426 369.536 C 543.605 374.350, 544.004 375.945, 548.038 375.985 C 549.774 376.002, 559 367.029, 559 365.323 C 559 363.165, 555.079 362.490, 551.328 364.002 M 527 365.752 C 524.142 366.709, 521 370.360, 521 372.724 C 521 376.385, 523.789 381, 526.003 381 C 529.288 381, 531.359 376.636, 530.623 371.264 C 529.910 366.067, 529.216 365.010, 527 365.752 M 561.817 368.750 C 560.410 370.262, 558.474 372.738, 557.514 374.250 L 555.770 377 560.177 377 C 564.065 377, 565.093 376.481, 568.908 372.593 C 571.287 370.170, 572.929 367.695, 572.558 367.093 C 572.186 366.492, 570.193 366, 568.128 366 C 565.320 366, 563.730 366.693, 561.817 368.750 M 572.930 371.953 C 567.368 377.800, 567.878 381, 574.374 381 C 576.657 381, 585 373.368, 585 371.280 C 585 370.650, 583.987 369.844, 582.750 369.488 C 581.513 369.132, 579.681 368.612, 578.680 368.331 C 577.448 367.986, 575.592 369.154, 572.930 371.953 M 586.042 375.845 C 581.592 380.078, 580.992 382.390, 583.934 383.965 C 587.238 385.733, 590.828 385.198, 592.085 382.750 C 592.720 381.512, 594.643 379.018, 596.358 377.206 C 598.961 374.458, 599.230 373.757, 597.988 372.972 C 594.614 370.839, 590.185 371.904, 586.042 375.845 M 514.439 379.191 C 513.903 380.882, 514.462 382.023, 516.888 384.191 C 520.962 387.831, 523.322 387.977, 522.002 384.506 C 519.367 377.574, 515.758 375.037, 514.439 379.191 M 545 379.482 C 545 383.216, 565.043 411.412, 588.374 440.500 C 591.462 444.350, 593.991 447.921, 593.994 448.436 C 593.997 448.950, 593.002 450.525, 591.783 451.936 C 590.563 453.346, 591.775 452.382, 594.476 449.794 L 599.387 445.087 595.383 440.294 C 593.181 437.657, 588.706 431.939, 585.440 427.588 C 582.173 423.236, 577.606 417.161, 575.292 414.088 C 565.807 401.492, 556.408 387.367, 554.977 383.556 C 553.562 379.788, 553.154 379.478, 549.227 379.193 C 546.902 379.023, 545 379.154, 545 379.482 M 508.655 386.829 C 506.129 389.620, 506.631 391.434, 511.026 395.405 C 514.316 398.377, 515.401 398.856, 516.959 398.022 C 521.227 395.738, 520.395 390.842, 515.098 387.070 C 511.536 384.533, 510.759 384.504, 508.655 386.829 M 761.189 397.250 C 759.590 399.587, 757.553 402.921, 756.663 404.657 C 754.840 408.213, 742.890 422.175, 734.232 430.862 C 721.655 443.484, 702.156 455.357, 684.783 460.973 C 677.789 463.234, 671.757 465.583, 671.380 466.193 C 670.051 468.345, 690.711 466.315, 703.971 462.992 C 719.491 459.103, 742.883 450.535, 757.974 443.214 C 775.695 434.616, 783.072 425.811, 783.132 413.183 C 783.164 406.566, 781.657 402.853, 777.339 398.903 C 769.215 391.473, 765.407 391.083, 761.189 397.250 M 502.408 398.500 C 500.913 400.782, 500.907 401.210, 502.345 403.403 C 503.211 404.725, 505.256 406.758, 506.890 407.922 L 509.861 410.037 511.430 407.796 C 513.655 404.620, 513.432 403.600, 509.632 399.571 C 505.638 395.336, 504.583 395.180, 502.408 398.500 M 517.217 410.119 C 515.962 412.971, 515.062 415.643, 515.217 416.058 C 515.373 416.472, 521.800 421.441, 529.500 427.100 C 537.200 432.758, 543.952 437.986, 544.504 438.717 C 545.332 439.815, 546.345 439.761, 550.308 438.411 C 552.948 437.511, 555.275 436.941, 555.478 437.144 C 555.681 437.347, 555.515 439.086, 555.110 441.007 C 554.296 444.864, 554.787 445.524, 562.748 451.270 C 565.085 452.957, 566.850 454.484, 566.670 454.663 C 566.491 454.843, 563.595 453.988, 560.235 452.765 C 556.876 451.541, 553.870 450.797, 553.556 451.110 C 553.243 451.424, 553.256 453.029, 553.585 454.677 C 554.063 457.064, 555.252 458.197, 559.424 460.244 L 564.663 462.813 572.437 458.907 C 576.793 456.717, 581.812 454.948, 583.855 454.882 C 586.943 454.781, 587.118 454.667, 585 454.132 C 582.452 453.488, 578.880 451.182, 567.393 442.764 C 563.838 440.159, 559.882 437.459, 558.601 436.764 C 552.713 433.569, 520.098 408.303, 519.817 406.718 C 519.616 405.590, 518.662 406.839, 517.217 410.119 M 498.200 409.200 C 495.959 411.441, 496.821 415.671, 500.077 418.411 C 503.906 421.633, 505.517 421.667, 507.548 418.567 C 509.418 415.712, 508.536 413.353, 504.371 410.078 C 501.351 407.702, 499.904 407.496, 498.200 409.200 M 492.453 420.091 C 490.273 424.307, 491.261 427.426, 495.744 430.472 C 501.421 434.330, 504 433.543, 504 427.953 C 504 425.901, 498.829 419.514, 495.897 417.945 C 494.393 417.140, 493.782 417.521, 492.453 420.091 M 402.475 422.041 C 401.654 423.369, 407.294 429.539, 411.200 431.585 C 412.686 432.363, 415.329 433, 417.075 433 C 420.121 433, 420.224 432.868, 419.613 429.750 C 419.263 427.962, 418.149 425.375, 417.136 424 C 415.580 421.887, 414.357 421.454, 409.235 421.205 C 405.497 421.022, 402.906 421.343, 402.475 422.041 M 391.655 425.829 C 390.745 426.835, 390 428.133, 390 428.714 C 390 430.059, 393.517 432.332, 397.953 433.853 C 401.023 434.906, 401.634 434.807, 403.453 432.966 L 405.500 430.893 401.765 427.447 C 397.615 423.618, 394.157 423.064, 391.655 425.829 M 424.559 428.250 C 426.613 434.908, 429.710 438.179, 435.250 439.541 C 437.776 440.162, 437.994 439.984, 437.930 437.358 C 437.807 432.369, 436.540 430.833, 430.527 428.387 C 423.404 425.489, 423.710 425.496, 424.559 428.250 M 506.619 431.608 C 505.598 434.076, 504.928 436.238, 505.131 436.411 C 505.334 436.584, 509.477 438.420, 514.338 440.491 C 522.252 443.862, 523.755 444.187, 528.723 443.603 C 531.774 443.244, 534.706 442.682, 535.238 442.353 C 536.357 441.661, 529.745 437.911, 519 433.142 C 514.875 431.311, 510.819 429.207, 509.987 428.467 C 508.677 427.300, 508.226 427.721, 506.619 431.608 M 487.987 432.534 C 486.312 436.940, 486.850 438.632, 491.169 442.534 L 495.338 446.300 497.169 444.039 C 500.673 439.712, 499.161 436.265, 491.737 431.653 C 489.015 429.962, 488.960 429.975, 487.987 432.534 M 382.418 435.090 C 380.571 437.132, 380.570 437.213, 382.398 438.549 C 385.306 440.675, 393.035 441.555, 394.095 439.880 C 395.485 437.687, 395.200 437.092, 391.750 434.989 C 387.576 432.444, 384.785 432.475, 382.418 435.090 M 442.140 438.130 C 443.516 444.253, 444.743 446, 447.666 446 C 450.089 446, 450.223 445.759, 449.677 442.394 C 448.858 437.353, 446.425 434, 443.583 434 C 441.322 434, 441.255 434.191, 442.140 438.130 M 374.589 445.077 C 371.420 448.843, 371.369 449.633, 374.250 450.320 C 382.108 452.194, 385.552 452.153, 387.353 450.163 C 389.708 447.561, 388.266 444.637, 383.872 443.105 C 378.994 441.405, 377.393 441.745, 374.589 445.077 M 453.396 446.190 C 454.124 450.869, 456.088 453, 459.672 453 C 462.224 453, 463.381 450.205, 462.828 445.371 C 462.522 442.697, 462.165 442.479, 457.613 442.190 L 452.725 441.879 453.396 446.190 M 612.402 443.999 C 606.769 446.239, 599 452.790, 599 455.300 C 599 456.237, 604.081 460.351, 611.177 465.161 C 635.781 481.837, 646.881 496.909, 651.558 519.990 C 653.558 529.861, 653.178 541.673, 650.402 555.857 C 648.609 565.019, 648.611 565.242, 650.477 566.607 C 651.525 567.373, 653.576 568, 655.036 568 C 657.947 568, 668.134 561.774, 671.843 557.729 L 674.186 555.173 671.593 550.749 C 667.131 543.134, 668.421 539.128, 677.649 531.948 C 680.867 529.444, 684.287 525.844, 685.248 523.948 C 688.786 516.971, 686.318 498.943, 679.847 484.500 C 675.198 474.124, 675.032 474, 665.779 474 C 661.428 474, 656.886 473.476, 655.684 472.837 C 653.576 471.714, 651.097 469.102, 651.032 467.934 C 651.014 467.622, 653.700 466.077, 657 464.500 C 660.300 462.923, 663 461.092, 663 460.432 C 663 459.175, 655.546 452, 654.240 452 C 653.825 452, 651.017 454.025, 648 456.500 C 642.888 460.694, 638.816 462.129, 637.602 460.166 C 637.319 459.707, 638.867 456.961, 641.043 454.065 C 643.219 451.169, 645 448.450, 645 448.023 C 645 447.596, 642.638 446.229, 639.750 444.985 C 632.162 441.718, 619.306 441.254, 612.402 443.999 M 483.590 445.174 C 481.037 448.820, 481.593 451.781, 485.250 454.011 C 489.603 456.665, 491.434 456.514, 493.521 453.328 C 495.664 450.057, 494.929 448.661, 489.326 445.352 L 485.181 442.904 483.590 445.174 M 467.667 448.667 C 466.668 449.665, 466.864 454.798, 467.925 455.454 C 469.174 456.226, 473.764 454.056, 474.403 452.392 C 475.274 450.123, 469.437 446.896, 467.667 448.667 M 498.269 451.750 C 497.733 453.262, 496.666 456.484, 495.897 458.909 C 494.138 464.462, 490.572 467.143, 484.122 467.762 C 479.961 468.162, 478.323 467.793, 474.619 465.623 C 471.351 463.708, 468.749 463, 464.973 463 C 460.239 463, 452.997 465.337, 453.002 466.864 C 453.003 467.214, 455.140 468.842, 457.752 470.483 C 470.051 478.209, 475.957 486.798, 476.775 498.151 C 477.718 511.235, 472.029 523.517, 456.900 541.060 L 448.046 551.327 451.865 555.469 C 453.965 557.748, 456.145 560.437, 456.710 561.446 C 457.275 562.455, 458.192 562.999, 458.749 562.655 C 459.306 562.311, 462.557 557.948, 465.973 552.959 C 474.120 541.065, 475.068 541.223, 476.655 554.738 C 477.316 560.359, 478.125 565.393, 478.454 565.925 C 478.824 566.524, 480.613 566.342, 483.152 565.446 C 485.407 564.651, 488.207 563.993, 489.376 563.985 C 493.735 563.953, 493.973 562.803, 491.042 555.932 C 484.893 541.520, 482.999 523.005, 486.356 510.137 C 489.529 497.975, 495.373 488.554, 506.961 476.917 C 512.758 471.096, 521.635 463.280, 526.689 459.548 C 535 453.409, 537.825 450.492, 536.623 449.290 C 536.390 449.057, 532.892 449.303, 528.850 449.837 C 524.610 450.397, 519.173 450.456, 516 449.977 C 512.975 449.520, 507.967 449.113, 504.871 449.073 C 499.606 449.005, 499.180 449.177, 498.269 451.750 M 367.073 456.635 C 365.933 458.084, 365 459.677, 365 460.175 C 365 460.673, 368.665 460.950, 373.145 460.790 C 379.727 460.556, 381.501 460.153, 382.395 458.691 C 384.065 455.959, 380.718 454, 374.381 454 C 369.916 454, 368.840 454.388, 367.073 456.635 M 480.475 456.041 C 480.110 456.631, 480.088 458.213, 480.425 459.557 C 480.904 461.464, 481.692 462, 484.019 462 C 487.407 462, 487.956 460.131, 485.250 457.807 C 482.394 455.355, 481.177 454.904, 480.475 456.041 M 363.455 465.455 C 359.254 469.655, 359.862 470.188, 370.791 471.890 C 376.486 472.777, 378 471.771, 378 467.101 C 378 462.474, 367.611 461.298, 363.455 465.455 M 356.667 475.667 C 356.300 476.033, 356 477.335, 356 478.558 C 356 481.037, 357.293 481.547, 366.240 482.598 C 371.811 483.253, 371.906 483.222, 372.595 480.476 C 373.588 476.521, 371.055 475, 363.476 475 C 360.097 475, 357.033 475.300, 356.667 475.667 M 515.641 485.166 L 509.781 489.231 510.638 493.366 C 511.109 495.640, 511.476 501.100, 511.454 505.500 C 511.419 512.514, 511.015 514.274, 508.180 519.776 C 506.401 523.228, 501.835 529.326, 498.033 533.328 C 490.604 541.149, 490.472 541.646, 493.664 549.763 L 494.554 552.027 499.603 549.511 C 505.198 546.722, 513.423 538.907, 518.031 532 C 525.037 521.499, 527.335 503.996, 523.546 490 C 522.578 486.425, 521.759 482.938, 521.726 482.250 C 521.694 481.563, 521.629 481.023, 521.583 481.051 C 521.538 481.079, 518.863 482.931, 515.641 485.166 M 562.500 497.967 L 562.500 514.617 568.500 513.214 C 584.025 509.586, 597.058 516.997, 596.959 529.398 C 596.926 533.571, 596.380 535.130, 593.959 537.962 C 591.099 541.309, 591 541.766, 591 551.653 C 591 557.279, 591.423 562.143, 591.939 562.463 C 592.456 562.782, 594.818 562.738, 597.189 562.366 C 602.816 561.482, 608.345 556.137, 610.018 549.964 C 612.414 541.122, 608.868 526.068, 600.730 510.546 C 595.753 501.052, 585.211 491.101, 575 486.259 C 561.274 479.750, 562.500 478.602, 562.500 497.967 M 355.309 486.636 C 354.397 489.014, 356.216 491.299, 359.749 492.215 C 365.406 493.681, 370.830 489.910, 367.989 486.487 C 366.184 484.312, 356.156 484.430, 355.309 486.636 M 451.378 491.679 C 443.652 509.150, 444.721 523.522, 454.448 532.950 C 457.425 535.835, 458.145 536.125, 459.514 534.989 C 463.208 531.922, 463.255 530.187, 459.804 524.215 C 456.745 518.925, 456.506 517.869, 456.578 510 C 456.635 503.701, 457.218 500.131, 458.828 496.213 C 460.022 493.305, 461 490.504, 461 489.989 C 461 489.128, 455.898 486, 454.495 486 C 454.162 486, 452.760 488.556, 451.378 491.679 M 759.390 519.091 C 756.579 519.560, 753.106 520.389, 751.672 520.935 L 749.065 521.926 751.010 526.213 C 754.596 534.112, 752.991 542.513, 746.350 550.618 L 742.645 555.140 748.572 560.524 C 751.833 563.485, 755.196 565.929, 756.046 565.954 C 757.970 566.011, 771.560 557.736, 775.177 554.305 C 779.724 549.992, 782.262 542.650, 781.833 535.053 C 781.116 522.354, 773.274 516.777, 759.390 519.091 M 715.434 525.750 C 715.101 527.263, 714.174 530.244, 713.373 532.375 C 712.572 534.506, 712.048 536.343, 712.208 536.456 C 718.530 540.935, 719.183 540.936, 721.315 536.466 C 723.292 532.321, 723.435 529.695, 721.850 526.684 C 719.505 522.228, 716.310 521.763, 715.434 525.750 M 552.557 532.223 C 550.134 535.682, 550.680 538.151, 554.884 542.750 C 559.355 547.642, 560.712 547.996, 561.589 544.500 C 562.459 541.033, 561.534 538.024, 558.282 533.738 C 554.999 529.413, 554.599 529.307, 552.557 532.223 M 570.579 534.250 C 569.772 535.487, 568.617 538.525, 568.012 541 C 566.264 548.153, 565.586 587.550, 566.914 604.816 C 568.280 622.568, 569.283 628.620, 572.603 639.133 C 575.035 646.834, 577.292 650.108, 578.994 648.406 C 579.494 647.906, 580.608 638.272, 581.469 626.998 C 582.330 615.724, 583.709 598.175, 584.534 588 C 586.220 567.203, 586.471 545.370, 585.067 541.676 C 584.554 540.326, 582.707 537.597, 580.963 535.611 C 577.153 531.271, 572.886 530.712, 570.579 534.250 M 696.161 541.691 C 691.563 543.956, 690.457 547.291, 692.517 552.683 C 697.175 564.881, 719.652 576.949, 759.490 588.642 C 766.085 590.578, 774.811 593.700, 778.881 595.581 C 786.878 599.275, 789 599.720, 789 597.703 C 789 595.797, 783.071 590.494, 769 579.814 C 741.665 559.066, 727.483 549.572, 714.528 543.349 C 706.704 539.590, 701.396 539.111, 696.161 541.691 M 679.500 562.873 C 676.200 564.926, 671.925 567.216, 670 567.963 C 663.992 570.293, 664.357 571.001, 671.550 570.965 C 679.478 570.924, 690.704 567.559, 692.421 564.708 C 693.296 563.255, 693.027 562.550, 691 560.980 C 687.612 558.357, 686.451 558.548, 679.500 562.873 M 632.106 569.713 C 627.139 573.735, 631.584 581.830, 643.870 591.137 C 653.898 598.734, 663.302 602.847, 675.771 605.088 C 681.672 606.150, 688.578 607.705, 691.119 608.546 C 696.772 610.416, 715.717 621.142, 722.394 626.254 C 727.814 630.403, 732 631.203, 732 628.090 C 732 622.483, 681.668 584.182, 659.589 572.987 C 652.001 569.139, 650.076 568.593, 642.760 568.209 C 635.673 567.837, 634.159 568.051, 632.106 569.713 M 701.500 573.721 C 699.850 574.623, 694.925 576.556, 690.555 578.016 C 686.185 579.477, 682.452 581.144, 682.259 581.723 C 681.733 583.300, 695.728 591, 699.120 591 C 702.092 591, 714.669 586.451, 720.846 583.142 L 724.193 581.349 714.846 576.663 C 709.706 574.085, 705.275 572, 705 572.028 C 704.725 572.057, 703.150 572.818, 701.500 573.721 M 794 591.378 C 794 592.136, 794.730 594.498, 795.623 596.628 C 796.991 599.894, 797.069 601.458, 796.123 606.615 C 794.779 613.933, 794.687 618, 795.864 618 C 797.046 618, 801.567 611.318, 803.454 606.782 C 806.413 599.666, 805.179 594.178, 800.020 591.510 C 796.381 589.629, 794 589.576, 794 591.378 M 749 596.031 C 740.355 597.717, 716.369 600.926, 711.500 601.048 C 710.013 601.085, 711.679 603.156, 718 609.125 C 722.675 613.540, 727.625 617.735, 729 618.447 C 731.781 619.889, 774.597 621.641, 779.145 620.500 C 781.553 619.895, 781.810 619.306, 782.438 612.932 C 783.382 603.348, 782.217 601.267, 774 597.866 C 765.187 594.218, 760.182 593.851, 749 596.031 M 662.487 608.042 C 661.568 610.936, 662.896 617.753, 664.737 619.594 C 665.906 620.763, 667.431 620.992, 670.895 620.521 C 673.428 620.176, 680.116 619.539, 685.758 619.106 C 691.399 618.673, 696.282 618.052, 696.607 617.726 C 697.686 616.647, 687.132 612.002, 679.256 610.090 C 674.990 609.054, 670.233 607.710, 668.685 607.103 C 664.634 605.515, 663.221 605.729, 662.487 608.042 M 668 638.119 C 657.848 640.823, 650.426 644.333, 646.918 648.088 C 643.653 651.582, 643.247 654.479, 645.557 657.777 C 647.065 659.931, 647.663 660, 664.807 660.012 C 685.896 660.026, 690.026 660.911, 701.378 667.853 C 710.415 673.379, 716.761 676.580, 717.389 675.929 C 718.366 674.915, 726.090 643.678, 725.648 642.526 C 725.130 641.175, 715.746 638.671, 705 637.016 C 694.066 635.332, 676.497 635.856, 668 638.119 M 735.195 661.750 C 728.347 679.405, 728.446 679, 730.965 679 C 734.086 679, 739.678 676.423, 744.021 672.984 C 748.926 669.099, 750.684 664.225, 749.093 658.917 C 747.798 654.595, 743.504 649, 741.482 649 C 740.690 649, 738.117 654.217, 735.195 661.750 M 834.500 669.039 C 819.903 679.299, 820.467 678.500, 823.014 685.309 C 824.178 688.418, 825.631 691.272, 826.244 691.651 C 828.188 692.852, 837.455 681.663, 842.327 672.231 C 844.897 667.254, 847 662.916, 847 662.591 C 847 660.900, 843.539 662.684, 834.500 669.039 M 647 681.752 C 643.241 683.629, 641.952 687.033, 644.046 689.555 C 645.702 691.551, 648.987 691.363, 654.614 688.951 C 657.296 687.801, 660.952 687.034, 662.946 687.201 C 665.988 687.457, 666.500 687.859, 666.500 689.995 C 666.500 692.185, 665.807 692.673, 660.818 693.995 C 657.693 694.823, 654.993 695.950, 654.818 696.500 C 654.643 697.050, 656.750 698.620, 659.500 699.989 C 669.846 705.138, 689.675 702.414, 691.383 695.609 C 692.378 691.646, 689.717 687.525, 684.546 685.022 C 674.911 680.358, 653.520 678.495, 647 681.752 M 791.924 685.585 C 789.873 687.773, 788.921 688.079, 785.735 687.571 C 782.423 687.044, 781.836 687.266, 780.854 689.422 C 778.532 694.516, 782.804 697.706, 790.418 696.565 C 795.557 695.794, 801 691.858, 801 688.911 C 801 686.723, 797.646 683, 795.674 683 C 794.945 683, 793.258 684.163, 791.924 685.585 M 793.713 698.592 C 792.179 699.423, 788.695 700.367, 785.970 700.690 C 783.245 701.013, 780.512 701.883, 779.898 702.623 C 779.210 703.451, 778.926 706.861, 779.159 711.476 C 779.467 717.586, 779.951 719.395, 781.757 721.202 C 783.795 723.240, 784.333 723.326, 788.334 722.256 C 794.249 720.674, 808.259 714.217, 807.839 713.266 C 807.652 712.845, 805.781 709.013, 803.680 704.750 C 799.613 696.498, 798.660 695.909, 793.713 698.592 M 433.357 703.511 C 432.149 706.661, 453.872 730, 458.013 730 C 458.989 730, 461.915 720.303, 462.237 716 L 462.500 712.500 452 708.966 C 446.225 707.022, 440.060 704.660, 438.300 703.716 C 434.393 701.621, 434.087 701.609, 433.357 703.511 M 488.589 715.077 C 483.186 721.498, 486.462 727.916, 496.172 729.932 C 500.452 730.821, 502.492 730.784, 505.569 729.763 C 509.418 728.486, 509.499 728.361, 509.438 723.744 C 509.392 720.220, 508.779 718.394, 507.013 716.514 C 504.822 714.182, 504.484 714.108, 502.360 715.500 C 499.036 717.678, 496.457 717.346, 494.592 714.500 C 492.480 711.277, 491.725 711.350, 488.589 715.077 M 569.430 722.084 L 566.500 725.153 569.500 724.428 C 576.056 722.843, 576.342 722.619, 574.237 720.714 C 572.454 719.100, 572.213 719.169, 569.430 722.084 M 481.183 729.370 C 480.513 731.224, 478.104 735.511, 475.829 738.898 C 470.999 746.092, 470.591 745.365, 483.153 751.974 C 491.507 756.369, 493.663 756.743, 497.931 754.536 C 508.071 749.292, 508.916 736.126, 499.221 734.428 C 495.165 733.718, 488.104 730.035, 486.048 727.558 C 484.035 725.132, 482.510 725.701, 481.183 729.370 M 605.589 729.077 C 602.331 732.949, 602.339 734.335, 605.635 736.927 C 607.742 738.585, 609.701 739, 615.412 739 C 626.059 739, 630.049 735.213, 624.698 730.186 C 622.683 728.293, 622.016 728.168, 619.337 729.179 C 616.688 730.179, 615.869 730.043, 613.234 728.167 C 609.272 725.345, 608.668 725.417, 605.589 729.077 M 693.993 741.853 C 689.730 746.116, 690.037 748.631, 695.002 750.119 C 698.111 751.050, 700.197 751.050, 704.355 750.120 C 710.890 748.657, 714.234 745.841, 713.807 742.157 C 713.541 739.857, 713.097 739.541, 710.500 739.805 C 704.074 740.459, 701.414 740.424, 699.243 739.657 C 697.459 739.028, 696.358 739.488, 693.993 741.853 M 565.075 745.352 C 556.821 746.581, 550.488 747.994, 550.273 748.655 C 550.066 749.291, 551.397 750.306, 553.231 750.911 C 558.445 752.632, 577.075 756, 581.379 756 C 585.252 756, 585.260 755.992, 584.698 752.526 C 584.023 748.365, 581.886 743.733, 580.500 743.426 C 579.950 743.304, 573.009 744.171, 565.075 745.352 M 606.435 745.500 C 606.731 746.600, 606.986 750.875, 607.002 755 C 607.018 759.125, 607.413 763.103, 607.880 763.839 C 608.582 764.947, 610.438 764.966, 618.614 763.951 C 630.485 762.477, 632.409 761.832, 634.513 758.621 C 635.977 756.387, 635.984 755.884, 634.593 753.326 C 633.747 751.772, 631.746 748.950, 630.145 747.055 L 627.234 743.611 616.566 743.555 C 606.373 743.502, 605.922 743.589, 606.435 745.500 M 711.796 753.537 C 711.500 753.833, 706.700 754.080, 701.129 754.087 C 695.558 754.093, 691 754.310, 691 754.569 C 691 754.828, 692.080 756.750, 693.400 758.841 C 696.072 763.074, 699 771.018, 699 774.035 C 699 776.639, 702.313 776.614, 712.020 773.938 C 721.839 771.230, 724 769.770, 724 765.845 C 724 759.162, 715.123 750.210, 711.796 753.537 M 646.750 769.197 C 638.638 773.108, 632 776.878, 632 777.574 C 632 779.919, 661.905 781.502, 671.247 779.652 L 674.995 778.910 672.888 774.705 C 668.586 766.117, 665.535 762.003, 663.500 762.045 C 662.400 762.068, 654.862 765.286, 646.750 769.197" stroke="none" fill="#f67d06" fill-rule="evenodd"/><path d="M 557.750 363.662 C 559.919 364.537, 559.138 366.284, 554.263 371.466 L 549.526 376.500 554.906 371.345 C 558.559 367.844, 560.090 365.678, 559.675 364.595 C 559.338 363.718, 558.486 363.036, 557.781 363.079 C 556.778 363.141, 556.771 363.267, 557.750 363.662 M 692.744 458.802 C 694.411 459.885, 680.876 464.237, 678.376 463.423 C 676.828 462.918, 676.762 463, 678 463.890 C 679.333 464.849, 679.333 464.979, 678 465.055 C 674.909 465.231, 680.544 466.859, 684 466.788 L 687.500 466.716 683.500 465.917 C 680.461 465.310, 681.302 465.203, 687 465.469 C 692.091 465.707, 693.858 465.525, 692.500 464.902 C 690.888 464.163, 691.130 464.050, 693.742 464.318 C 695.526 464.501, 696.767 464.434, 696.501 464.168 C 696.235 463.902, 696.576 462.994, 697.259 462.150 C 698.261 460.911, 698.247 460.768, 697.183 461.408 C 696.266 461.960, 695.962 461.675, 696.183 460.468 C 696.402 459.271, 695.728 458.621, 694 458.365 C 692.477 458.139, 691.986 458.310, 692.744 458.802 M 368.250 461.728 C 370.313 461.944, 373.688 461.944, 375.750 461.728 C 377.813 461.513, 376.125 461.336, 372 461.336 C 367.875 461.336, 366.188 461.513, 368.250 461.728 M 660.750 473.732 C 663.087 473.943, 666.913 473.943, 669.250 473.732 C 671.587 473.522, 669.675 473.349, 665 473.349 C 660.325 473.349, 658.413 473.522, 660.750 473.732 M 476.328 500.500 C 476.333 504.350, 476.513 505.802, 476.730 503.728 C 476.946 501.653, 476.943 498.503, 476.722 496.728 C 476.501 494.952, 476.324 496.650, 476.328 500.500 M 586.349 554 C 586.349 558.675, 586.522 560.587, 586.732 558.250 C 586.943 555.913, 586.943 552.087, 586.732 549.750 C 586.522 547.413, 586.349 549.325, 586.349 554 M 565.407 577 C 565.407 586.075, 565.559 589.788, 565.744 585.250 C 565.929 580.712, 565.929 573.288, 565.744 568.750 C 565.559 564.212, 565.407 567.925, 565.407 577 M 682.784 635.738 C 685.689 635.941, 690.189 635.939, 692.784 635.734 C 695.378 635.528, 693 635.363, 687.500 635.365 C 682 635.368, 679.878 635.536, 682.784 635.738 M 606.349 754 C 606.349 758.675, 606.522 760.587, 606.732 758.250 C 606.943 755.913, 606.943 752.087, 606.732 749.750 C 606.522 747.413, 606.349 749.325, 606.349 754" stroke="none" fill="#070504" fill-rule="evenodd"/></svg>